<svg width="177" height="24" viewBox="0 0 177 24" fill="none" xmlns="http://www.w3.org/2000/svg">
<g clip-path="url(#clip0_5_18)">
<path d="M9.06145 23.1079C5.26816 22.3769 -3.39077 20.6274 1.4173 5.06384C9.6344 6.09939 16.9728 14.0644 9.06145 23.1079Z" fill="url(#paint0_linear_5_18)"/>
<path d="M9.3521 23.2085C6.31399 20.462 6.35355 2.86542 23.1137 2.97579C24.8848 10.8922 21.3794 19.6362 9.3521 23.2085Z" fill="url(#paint1_linear_5_18)"/>
<path d="M36.58 19.18C35.6733 19.18 34.8333 19.06 34.06 18.82C33.3 18.58 32.64 18.2467 32.08 17.82C31.5333 17.3933 31.1067 16.8933 30.8 16.32C30.4933 15.7333 30.3467 15.0933 30.36 14.4H33.32C33.32 14.76 33.4 15.0933 33.56 15.4C33.72 15.7067 33.9533 15.9733 34.26 16.2C34.5667 16.4267 34.9333 16.6 35.36 16.72C35.7867 16.84 36.2533 16.9 36.76 16.9C37.5867 16.9 38.22 16.7467 38.66 16.44C39.1133 16.1333 39.34 15.7 39.34 15.14C39.34 14.7533 39.22 14.4267 38.98 14.16C38.74 13.8933 38.36 13.66 37.84 13.46L35.36 12.5C34.3067 12.0867 33.5333 11.5933 33.04 11.02C32.5467 10.4333 32.3 9.71333 32.3 8.86C32.3 7.95333 32.5333 7.16667 33 6.5C33.4667 5.82 34.12 5.3 34.96 4.94C35.8 4.56667 36.78 4.38 37.9 4.38C38.7133 4.38 39.4533 4.48667 40.12 4.7C40.7867 4.9 41.36 5.19333 41.84 5.58C42.32 5.96667 42.6867 6.42667 42.94 6.96C43.2067 7.49333 43.3333 8.08 43.32 8.72H40.36C40.3733 8.30667 40.2667 7.94667 40.04 7.64C39.8133 7.33333 39.4933 7.09333 39.08 6.92C38.6667 6.74667 38.18 6.66 37.62 6.66C37.14 6.66 36.72 6.72 36.36 6.84C36.0133 6.96 35.74 7.14 35.54 7.38C35.3533 7.60667 35.26 7.89333 35.26 8.24C35.26 8.57333 35.3733 8.86667 35.6 9.12C35.84 9.37333 36.22 9.6 36.74 9.8L39.02 10.7C40.2067 11.1667 41.0533 11.6933 41.56 12.28C42.0667 12.8533 42.32 13.5933 42.32 14.5C42.32 15.46 42.08 16.2933 41.6 17C41.1333 17.6933 40.4733 18.2333 39.62 18.62C38.7667 18.9933 37.7533 19.18 36.58 19.18ZM47.9092 19.22C46.6426 19.22 45.7426 18.8733 45.2092 18.18C44.6759 17.4867 44.5559 16.4933 44.8492 15.2L46.8492 6.52L50.1092 5.4L47.7692 15.48C47.6626 15.9333 47.7092 16.2733 47.9092 16.5C48.1092 16.7267 48.4359 16.84 48.8892 16.84C49.1559 16.84 49.3826 16.82 49.5692 16.78C49.7692 16.74 49.9559 16.6933 50.1292 16.64L49.6092 18.92C49.4092 19.0133 49.1692 19.0867 48.8892 19.14C48.6226 19.1933 48.2959 19.22 47.9092 19.22ZM43.8892 11.08L44.4092 8.8H51.9292L51.4092 11.08H43.8892ZM57.6119 19C57.5985 18.7733 57.6052 18.5 57.6319 18.18C57.6719 17.86 57.7385 17.48 57.8319 17.04H57.7919L58.8719 12.24C58.9519 11.9067 58.9319 11.6333 58.8119 11.42C58.7052 11.1933 58.5319 11.0267 58.2919 10.92C58.0519 10.8133 57.7652 10.76 57.4319 10.76C56.8985 10.76 56.4652 10.8667 56.1319 11.08C55.8119 11.28 55.6119 11.5133 55.5319 11.78H52.7119C53.0185 10.8333 53.6052 10.0667 54.4719 9.48C55.3385 8.89333 56.4052 8.6 57.6719 8.6C58.6452 8.6 59.4719 8.76 60.1519 9.08C60.8452 9.38667 61.3319 9.86 61.6119 10.5C61.9052 11.1267 61.9385 11.92 61.7119 12.88L60.7319 17.16C60.6785 17.4267 60.6319 17.7533 60.5919 18.14C60.5519 18.5133 60.5452 18.8 60.5719 19H57.6119ZM54.3519 19.2C53.4452 19.2 52.7185 18.9667 52.1719 18.5C51.6385 18.0333 51.3719 17.4333 51.3719 16.7C51.3719 15.9 51.5785 15.24 51.9919 14.72C52.4185 14.2 53.0052 13.7933 53.7519 13.5C54.5119 13.2067 55.3985 13.0067 56.4119 12.9L59.2519 12.6L58.8519 14.34L56.3319 14.66C55.7585 14.7267 55.2919 14.8867 54.9319 15.14C54.5719 15.38 54.3919 15.72 54.3919 16.16C54.3919 16.44 54.5052 16.6533 54.7319 16.8C54.9585 16.9333 55.2652 17 55.6519 17C56.3185 17 56.8852 16.82 57.3519 16.46C57.8185 16.0867 58.0985 15.6867 58.1919 15.26L58.0919 16.96C57.6919 17.6133 57.1919 18.1533 56.5919 18.58C56.0052 18.9933 55.2585 19.2 54.3519 19.2ZM62.5786 19L64.9386 8.8H67.8786L67.3186 11.2H67.3786L65.5786 19H62.5786ZM66.8786 13.36L67.1586 10.92C67.5453 10.1733 68.0253 9.6 68.5986 9.2C69.1719 8.8 69.7853 8.6 70.4386 8.6C70.6519 8.6 70.8453 8.62 71.0186 8.66C71.2053 8.68667 71.3519 8.72 71.4586 8.76L70.8186 11.54C70.6586 11.4867 70.4586 11.4467 70.2186 11.42C69.9919 11.38 69.7719 11.36 69.5586 11.36C68.7453 11.36 68.1319 11.5267 67.7186 11.86C67.3053 12.1933 67.0253 12.6933 66.8786 13.36ZM75.7413 19.22C74.4746 19.22 73.5746 18.8733 73.0413 18.18C72.5079 17.4867 72.3879 16.4933 72.6813 15.2L74.6813 6.52L77.9413 5.4L75.6013 15.48C75.4946 15.9333 75.5413 16.2733 75.7413 16.5C75.9413 16.7267 76.2679 16.84 76.7213 16.84C76.9879 16.84 77.2146 16.82 77.4013 16.78C77.6013 16.74 77.7879 16.6933 77.9613 16.64L77.4413 18.92C77.2413 19.0133 77.0013 19.0867 76.7213 19.14C76.4546 19.1933 76.1279 19.22 75.7413 19.22ZM71.7213 11.08L72.2413 8.8H79.7613L79.2413 11.08H71.7213ZM82.5648 19.2C81.4582 19.2 80.6448 18.8267 80.1248 18.08C79.6048 17.32 79.4848 16.3333 79.7648 15.12L81.2248 8.8H84.2248L82.8248 14.86C82.6782 15.5267 82.7115 16.0267 82.9248 16.36C83.1382 16.68 83.5248 16.84 84.0848 16.84C84.7648 16.84 85.3582 16.6133 85.8648 16.16C86.3715 15.7067 86.7182 15.0733 86.9048 14.26L86.6048 16.72C86.2182 17.4533 85.6448 18.0533 84.8848 18.52C84.1382 18.9733 83.3648 19.2 82.5648 19.2ZM85.8648 19L86.4248 16.6H86.3648L88.1648 8.8H91.1648L88.8048 19H85.8648ZM97.7914 19.28C97.1247 19.28 96.5381 19.1533 96.0314 18.9C95.5381 18.6467 95.1647 18.3 94.9114 17.86C94.6581 17.42 94.5581 16.92 94.6114 16.36H94.8114L93.2714 23.1H90.2714L93.5714 8.8H96.4914L96.0314 10.8L95.9314 10.74C96.1981 10.0867 96.6381 9.58 97.2514 9.22C97.8781 8.86 98.6114 8.68 99.4514 8.68C100.638 8.68 101.578 9.04 102.271 9.76C102.965 10.48 103.311 11.5067 103.311 12.84C103.311 13.72 103.171 14.5467 102.891 15.32C102.611 16.0933 102.218 16.78 101.711 17.38C101.205 17.9667 100.618 18.4333 99.9514 18.78C99.2847 19.1133 98.5647 19.28 97.7914 19.28ZM97.2914 16.78C97.7181 16.78 98.1047 16.68 98.4514 16.48C98.8114 16.28 99.1181 16.0133 99.3714 15.68C99.6381 15.3467 99.8381 14.9733 99.9714 14.56C100.118 14.1333 100.191 13.7 100.191 13.26C100.191 12.54 100.005 11.98 99.6314 11.58C99.2714 11.18 98.7981 10.98 98.2114 10.98C97.8647 10.98 97.5381 11.0467 97.2314 11.18C96.9381 11.3133 96.6714 11.4933 96.4314 11.72C96.2047 11.9467 96.0047 12.2133 95.8314 12.52C95.6581 12.8133 95.5247 13.1333 95.4314 13.48C95.3514 13.8133 95.3114 14.1533 95.3114 14.5C95.3114 15.22 95.4914 15.78 95.8514 16.18C96.2247 16.58 96.7047 16.78 97.2914 16.78ZM111.01 19.2C109.757 19.2 108.657 18.9333 107.71 18.4C106.777 17.8533 106.057 17.0933 105.55 16.12C105.043 15.1333 104.797 13.9933 104.81 12.7C104.823 11.9267 104.93 11.1933 105.13 10.5C105.33 9.79333 105.61 9.13333 105.97 8.52C106.33 7.89333 106.757 7.33333 107.25 6.84C107.743 6.33333 108.29 5.9 108.89 5.54C109.49 5.16667 110.13 4.88667 110.81 4.7C111.503 4.5 112.223 4.4 112.97 4.4C113.863 4.4 114.697 4.54667 115.47 4.84C116.243 5.12 116.917 5.51333 117.49 6.02C118.077 6.51333 118.51 7.1 118.79 7.78C119.083 8.44667 119.183 9.17333 119.09 9.96H116.05C116.077 9.52 116.017 9.11333 115.87 8.74C115.737 8.36667 115.53 8.04 115.25 7.76C114.97 7.46667 114.623 7.24 114.21 7.08C113.81 6.92 113.357 6.84 112.85 6.84C112.29 6.84 111.757 6.94667 111.25 7.16C110.757 7.36 110.31 7.64667 109.91 8.02C109.51 8.39333 109.163 8.83333 108.87 9.34C108.577 9.83333 108.35 10.38 108.19 10.98C108.03 11.5667 107.95 12.18 107.95 12.82C107.95 14.0467 108.257 15.0133 108.87 15.72C109.483 16.4133 110.317 16.76 111.37 16.76C112.29 16.76 113.097 16.4867 113.79 15.94C114.483 15.38 114.983 14.62 115.29 13.66H118.33C118.023 14.7667 117.51 15.74 116.79 16.58C116.083 17.4067 115.23 18.0533 114.23 18.52C113.243 18.9733 112.17 19.2 111.01 19.2ZM124.78 19C124.767 18.7733 124.773 18.5 124.8 18.18C124.84 17.86 124.907 17.48 125 17.04H124.96L126.04 12.24C126.12 11.9067 126.1 11.6333 125.98 11.42C125.873 11.1933 125.7 11.0267 125.46 10.92C125.22 10.8133 124.933 10.76 124.6 10.76C124.067 10.76 123.633 10.8667 123.3 11.08C122.98 11.28 122.78 11.5133 122.7 11.78H119.88C120.187 10.8333 120.773 10.0667 121.64 9.48C122.507 8.89333 123.573 8.6 124.84 8.6C125.813 8.6 126.64 8.76 127.32 9.08C128.013 9.38667 128.5 9.86 128.78 10.5C129.073 11.1267 129.107 11.92 128.88 12.88L127.9 17.16C127.847 17.4267 127.8 17.7533 127.76 18.14C127.72 18.5133 127.713 18.8 127.74 19H124.78ZM121.52 19.2C120.613 19.2 119.887 18.9667 119.34 18.5C118.807 18.0333 118.54 17.4333 118.54 16.7C118.54 15.9 118.747 15.24 119.16 14.72C119.587 14.2 120.173 13.7933 120.92 13.5C121.68 13.2067 122.567 13.0067 123.58 12.9L126.42 12.6L126.02 14.34L123.5 14.66C122.927 14.7267 122.46 14.8867 122.1 15.14C121.74 15.38 121.56 15.72 121.56 16.16C121.56 16.44 121.673 16.6533 121.9 16.8C122.127 16.9333 122.433 17 122.82 17C123.487 17 124.053 16.82 124.52 16.46C124.987 16.0867 125.267 15.6867 125.36 15.26L125.26 16.96C124.86 17.6133 124.36 18.1533 123.76 18.58C123.173 18.9933 122.427 19.2 121.52 19.2ZM129.767 19L132.107 8.8H135.047L134.507 11.2H134.567L132.767 19H129.767ZM136.607 19L137.987 12.94C138.133 12.2733 138.1 11.78 137.887 11.46C137.687 11.1267 137.32 10.96 136.787 10.96C136.133 10.96 135.553 11.1867 135.047 11.64C134.553 12.08 134.213 12.7133 134.027 13.54L134.327 11.08C134.713 10.3333 135.287 9.73333 136.047 9.28C136.82 8.82667 137.64 8.6 138.507 8.6C139.587 8.6 140.36 8.93333 140.827 9.6C141.307 10.2667 141.387 11.2933 141.067 12.68L139.607 19H136.607ZM143.467 19L144.847 12.94C144.993 12.2733 144.96 11.78 144.747 11.46C144.547 11.1267 144.18 10.96 143.647 10.96C142.993 10.96 142.413 11.1867 141.907 11.64C141.4 12.08 141.053 12.7133 140.867 13.54L140.767 11.08C141.353 10.3333 142.04 9.73333 142.827 9.28C143.613 8.82667 144.393 8.6 145.167 8.6C145.887 8.6 146.487 8.77333 146.967 9.12C147.447 9.45333 147.773 9.92667 147.947 10.54C148.12 11.1533 148.113 11.8667 147.927 12.68L146.467 19H143.467ZM155.33 19.28C154.664 19.28 154.077 19.1533 153.57 18.9C153.077 18.6467 152.704 18.3 152.45 17.86C152.197 17.42 152.097 16.92 152.15 16.36H152.35L150.81 23.1H147.81L151.11 8.8H154.03L153.57 10.8L153.47 10.74C153.737 10.0867 154.177 9.58 154.79 9.22C155.417 8.86 156.15 8.68 156.99 8.68C158.177 8.68 159.117 9.04 159.81 9.76C160.504 10.48 160.85 11.5067 160.85 12.84C160.85 13.72 160.71 14.5467 160.43 15.32C160.15 16.0933 159.757 16.78 159.25 17.38C158.744 17.9667 158.157 18.4333 157.49 18.78C156.824 19.1133 156.104 19.28 155.33 19.28ZM154.83 16.78C155.257 16.78 155.644 16.68 155.99 16.48C156.35 16.28 156.657 16.0133 156.91 15.68C157.177 15.3467 157.377 14.9733 157.51 14.56C157.657 14.1333 157.73 13.7 157.73 13.26C157.73 12.54 157.544 11.98 157.17 11.58C156.81 11.18 156.337 10.98 155.75 10.98C155.404 10.98 155.077 11.0467 154.77 11.18C154.477 11.3133 154.21 11.4933 153.97 11.72C153.744 11.9467 153.544 12.2133 153.37 12.52C153.197 12.8133 153.064 13.1333 152.97 13.48C152.89 13.8133 152.85 14.1533 152.85 14.5C152.85 15.22 153.03 15.78 153.39 16.18C153.764 16.58 154.244 16.78 154.83 16.78Z" fill="#E3E3E3"/>
</g>
<defs>
<linearGradient id="paint0_linear_5_18" x1="3.77557" y1="5.91571" x2="5.23185" y2="21.5589" gradientUnits="userSpaceOnUse">
<stop stop-color="#18E299"/>
<stop offset="1" stop-color="#15803D"/>
</linearGradient>
<linearGradient id="paint1_linear_5_18" x1="18.6257" y1="1.03637" x2="10.6082" y2="23.4286" gradientUnits="userSpaceOnUse">
<stop stop-color="#16A34A"/>
<stop offset="1" stop-color="#4ADE80"/>
</linearGradient>
<clipPath id="clip0_5_18">
<rect width="177" height="24" fill="white"/>
</clipPath>
</defs>
</svg>
